# xmcd
# 
# Track frame offsets:
#     150
#     15863
#     32655
#     47830
#     57195
#     71584
#     87837
#     105020
#     121389
#     136396
#     151154
#     160740
# 
# Disc length: 2399
# 
# Revision: 2
# Processed by: cddbd v1.5.2PL0 Copyright (c) Steve Scherf et al.
# Submitted via: fre:ac v1.0.31
# 
DISCID=86095d0c
DTITLE=Brian Setzer - Rockabilly Riot! All Original
DYEAR=2014
DGENRE=Rock/Pop
TTITLE0=Let's Shake
TTITLE1=Rockabilly Blues
TTITLE2=Vinyl Records
TTITLE3=Lemme Slide
TTITLE4=Nothing Is a Sure Thing
TTITLE5=What's Her Name?
TTITLE6=Calamity Jane
TTITLE7=The Girl With the Blues in Her Eyes
TTITLE8=Stiletto Cool
TTITLE9=I Should'a Had a V-8
TTITLE10=Blue Lights, Big City
TTITLE11=Cock-a-doodle Don't
EXTD=
EXTT0=
EXTT1=
EXTT2=
EXTT3=
EXTT4=
EXTT5=
EXTT6=
EXTT7=
EXTT8=
EXTT9=
EXTT10=
EXTT11=
PLAYORDER=
